<svg width="23" height="28" viewBox="0 0 23 28" fill="none" xmlns="http://www.w3.org/2000/svg">
<path d="M11.6663 9.65741L13.1597 13.3334H10.173L11.6663 9.65741ZM0.333008 4.00008V24.0001C0.333008 24.8841 0.684197 25.732 1.30932 26.3571C1.93444 26.9822 2.78229 27.3334 3.66634 27.3334H21.333C21.5982 27.3334 21.8526 27.2281 22.0401 27.0405C22.2277 26.853 22.333 26.5986 22.333 26.3334C22.333 26.0682 22.2277 25.8138 22.0401 25.6263C21.8526 25.4388 21.5982 25.3334 21.333 25.3334H3.66634C3.31272 25.3334 2.97358 25.1929 2.72353 24.9429C2.47348 24.6928 2.33301 24.3537 2.33301 24.0001H21.333C21.5982 24.0001 21.8526 23.8947 22.0401 23.7072C22.2277 23.5197 22.333 23.2653 22.333 23.0001V4.00008C22.333 3.56234 22.2468 3.12889 22.0793 2.72447C21.9118 2.32005 21.6662 1.95259 21.3567 1.64306C21.0472 1.33353 20.6797 1.088 20.2753 0.920483C19.8709 0.752967 19.4374 0.666748 18.9997 0.666748H3.66634C2.78229 0.666748 1.93444 1.01794 1.30932 1.64306C0.684197 2.26818 0.333008 3.11603 0.333008 4.00008ZM11.6663 6.00008C11.8654 6.00007 12.0599 6.05945 12.2249 6.17061C12.39 6.28177 12.5182 6.43967 12.593 6.62408L16.9263 17.2907C17.0261 17.5365 17.0241 17.8118 16.9208 18.0561C16.8175 18.3004 16.6214 18.4937 16.3757 18.5934C16.254 18.6428 16.1238 18.6677 15.9924 18.6668C15.8611 18.6658 15.7313 18.639 15.6103 18.5879C15.366 18.4846 15.1727 18.2885 15.073 18.0427L13.973 15.3334H9.35968L8.25967 18.0427C8.15995 18.2885 7.96669 18.4846 7.72239 18.5879C7.47809 18.6911 7.20278 18.6931 6.95701 18.5934C6.71124 18.4937 6.51515 18.3004 6.41188 18.0561C6.30861 17.8118 6.30662 17.5365 6.40634 17.2907L10.7397 6.62408C10.8145 6.43967 10.9427 6.28177 11.1077 6.17061C11.2728 6.05945 11.4673 6.00007 11.6663 6.00008Z" fill="white"/>
</svg>
